<svg width="71" height="49" viewBox="0 0 71 49" fill="none" xmlns="http://www.w3.org/2000/svg">
<path d="M51.0298 6.05055C50.9869 6.09316 49.8286 6.17838 48.4772 6.2636C46.418 6.39142 38.9105 6.88142 31.9606 7.35012C31.0812 7.41403 28.3355 7.60577 25.8473 7.77621C23.3806 7.94664 20.2917 8.13838 18.9833 8.22359C15.4011 8.41534 14.2213 8.62838 13.3633 9.28881C11.9905 10.3327 12.012 10.0771 12.012 22.7745C12.012 35.4292 12.012 35.4506 13.299 36.4092C14.3286 37.1549 14.8005 37.2401 18.5972 37.4745C20.5706 37.6023 22.5869 37.7514 23.0803 37.8153L23.9597 37.9006L26.2549 33.6397L28.55 29.3788L27.8636 28.6119C25.5041 25.9275 25.0966 21.5601 26.9198 18.4284C28.8075 15.1688 32.7972 13.3366 36.3579 14.061C40.1331 14.8279 43.0933 17.9171 43.5008 21.5175C43.9727 25.6079 42.1709 29.0806 38.6745 30.8062C37.0658 31.5945 36.9156 31.6371 34.7706 31.6584L32.5398 31.6797L29.9014 36.8566C28.4642 39.6901 27.3274 42.1614 27.3917 42.3319C27.5419 42.7153 28.121 42.5236 29.7084 41.5436C32.8615 39.6049 34.6204 38.7314 35.5857 38.6249C36.122 38.5823 37.7736 38.6249 39.2537 38.7527C41.5488 38.9658 45.1739 39.2214 53.1105 39.7327C54.1401 39.7966 55.1053 39.754 55.47 39.6262C56.2636 39.3279 57.0359 38.6036 57.2933 37.9432C57.4005 37.6662 57.4863 31.1045 57.4863 22.7532C57.4863 9.11838 57.4649 8.01055 57.1217 7.43534C56.4138 6.2636 55.6416 5.96534 53.2606 5.96534C52.0809 5.96534 51.0727 6.00795 51.0298 6.05055Z" fill="#236BFE"/>
<path d="M32.6684 18.5562C30.9738 19.387 30.03 20.9423 30.03 22.8383C30.0515 26.4601 33.8267 28.697 37.1086 27.0566C39.1034 26.0553 40.0902 23.6905 39.4466 21.4536C39.1678 20.4523 37.9451 19.0675 36.8726 18.5136C35.7572 17.9596 33.8482 17.9809 32.6684 18.5562Z" fill="#236BFE"/>
</svg>
