<svg width="20" height="20" viewBox="0 0 20 20" fill="none" xmlns="http://www.w3.org/2000/svg">
<g clip-path="url(#clip0_54747_2493)">
<path d="M19.2675 7.56203L12.9467 1.23657C12.1644 0.456097 11.1047 0.0178223 10 0.0178223C8.89528 0.0178223 7.83563 0.456097 7.05334 1.23657L0.732509 7.56203C0.499531 7.79365 0.314818 8.06925 0.189079 8.37284C0.0633393 8.67642 -0.000925333 9.00196 1.00662e-05 9.33059V17.5163C1.00662e-05 18.1798 0.263402 18.816 0.732242 19.2852C1.20108 19.7543 1.83697 20.0178 2.50001 20.0178H17.5C18.163 20.0178 18.7989 19.7543 19.2678 19.2852C19.7366 18.816 20 18.1798 20 17.5163V9.33059C20.0009 9.00196 19.9367 8.67642 19.8109 8.37284C19.6852 8.06925 19.5005 7.79365 19.2675 7.56203ZM12.5 18.3502H7.5V15.0699C7.5 14.4064 7.76339 13.7702 8.23223 13.301C8.70108 12.8319 9.33696 12.5684 10 12.5684C10.663 12.5684 11.2989 12.8319 11.7678 13.301C12.2366 13.7702 12.5 14.4064 12.5 15.0699V18.3502ZM18.3333 17.5163C18.3333 17.7375 18.2455 17.9496 18.0892 18.1059C17.933 18.2623 17.721 18.3502 17.5 18.3502H14.1667V15.0699C14.1667 13.9641 13.7277 12.9037 12.9463 12.1218C12.1649 11.3399 11.1051 10.9007 10 10.9007C8.89493 10.9007 7.83513 11.3399 7.05372 12.1218C6.27232 12.9037 5.83334 13.9641 5.83334 15.0699V18.3502H2.50001C2.27899 18.3502 2.06703 18.2623 1.91075 18.1059C1.75447 17.9496 1.66668 17.7375 1.66668 17.5163V9.33059C1.66745 9.1096 1.75517 8.89782 1.91084 8.74107L8.23167 2.41811C8.70142 1.95028 9.33722 1.68763 10 1.68763C10.6628 1.68763 11.2986 1.95028 11.7683 2.41811L18.0892 8.74357C18.2442 8.8997 18.3319 9.11047 18.3333 9.33059V17.5163Z" fill="#888C9F"/>
</g>
<defs>
<clipPath id="clip0_54747_2493">
<rect width="20" height="20" fill="white"/>
</clipPath>
</defs>
</svg>
