<svg width="18" height="20" viewBox="0 0 18 20" fill="none" xmlns="http://www.w3.org/2000/svg">
<path d="M16.7449 11.5833L16.3749 11.37C16.5415 10.4637 16.5415 9.53463 16.3749 8.62833L16.7449 8.415C17.0294 8.25085 17.2789 8.03226 17.4789 7.77172C17.679 7.51118 17.8257 7.21378 17.9109 6.89651C17.996 6.57925 18.0178 6.24832 17.975 5.92263C17.9322 5.59694 17.8257 5.28286 17.6616 4.99833C17.4974 4.7138 17.2788 4.46439 17.0183 4.26434C16.7578 4.06428 16.4604 3.91751 16.1431 3.83239C15.8258 3.74726 15.4949 3.72547 15.1692 3.76824C14.8435 3.81101 14.5294 3.91751 14.2449 4.08167L13.8741 4.29583C13.1737 3.69743 12.3688 3.23354 11.4999 2.9275V2.5C11.4999 1.83696 11.2365 1.20107 10.7677 0.732233C10.2988 0.263392 9.66296 0 8.99991 0C8.33687 0 7.70099 0.263392 7.23215 0.732233C6.76331 1.20107 6.49991 1.83696 6.49991 2.5V2.9275C5.63107 3.23464 4.82645 3.69967 4.12658 4.29917L3.75408 4.08333C3.17944 3.75181 2.49665 3.66214 1.8559 3.83405C1.21515 4.00596 0.668934 4.42536 0.337414 5C0.00589312 5.57464 -0.0837762 6.25743 0.0881322 6.89818C0.260041 7.53893 0.679445 8.08515 1.25408 8.41667L1.62408 8.63C1.45751 9.5363 1.45751 10.4654 1.62408 11.3717L1.25408 11.585C0.679445 11.9165 0.260041 12.4627 0.0881322 13.1035C-0.0837762 13.7442 0.00589312 14.427 0.337414 15.0017C0.668934 15.5763 1.21515 15.9957 1.8559 16.1676C2.49665 16.3395 3.17944 16.2499 3.75408 15.9183L4.12491 15.7042C4.82555 16.3027 5.63073 16.7666 6.49991 17.0725V17.5C6.49991 18.163 6.76331 18.7989 7.23215 19.2678C7.70099 19.7366 8.33687 20 8.99991 20C9.66296 20 10.2988 19.7366 10.7677 19.2678C11.2365 18.7989 11.4999 18.163 11.4999 17.5V17.0725C12.3688 16.7654 13.1734 16.3003 13.8732 15.7008L14.2457 15.9158C14.8204 16.2474 15.5032 16.337 16.1439 16.1651C16.7847 15.9932 17.3309 15.5738 17.6624 14.9992C17.9939 14.4245 18.0836 13.7417 17.9117 13.101C17.7398 12.4602 17.3204 11.914 16.7457 11.5825L16.7449 11.5833ZM14.6216 8.43667C14.9038 9.45922 14.9038 10.5391 14.6216 11.5617C14.5723 11.7396 14.5835 11.9289 14.6535 12.0998C14.7235 12.2707 14.8483 12.4135 15.0082 12.5058L15.9116 13.0275C16.1031 13.138 16.2429 13.3201 16.3001 13.5336C16.3574 13.7472 16.3275 13.9747 16.217 14.1663C16.1065 14.3578 15.9244 14.4975 15.7109 14.5548C15.4973 14.6121 15.2698 14.5822 15.0782 14.4717L14.1732 13.9483C14.0132 13.8556 13.8268 13.8188 13.6435 13.8437C13.4601 13.8686 13.2903 13.9538 13.1607 14.0858C12.419 14.843 11.4846 15.3833 10.4582 15.6483C10.2791 15.6944 10.1204 15.7987 10.0071 15.9449C9.89377 16.0911 9.83232 16.2709 9.83241 16.4558V17.5C9.83241 17.721 9.74462 17.933 9.58834 18.0893C9.43206 18.2455 9.22009 18.3333 8.99908 18.3333C8.77807 18.3333 8.5661 18.2455 8.40983 18.0893C8.25354 17.933 8.16575 17.721 8.16575 17.5V16.4567C8.16584 16.2717 8.10439 16.092 7.99108 15.9458C7.87778 15.7996 7.71905 15.6952 7.53991 15.6492C6.51354 15.3831 5.57935 14.8416 4.83825 14.0833C4.70868 13.9513 4.53886 13.8661 4.35554 13.8412C4.17223 13.8163 3.98584 13.8531 3.82575 13.9458L2.92241 14.4683C2.8276 14.5239 2.72274 14.5602 2.61385 14.5751C2.50496 14.59 2.39421 14.5832 2.28796 14.5551C2.18171 14.527 2.08207 14.4782 1.99476 14.4114C1.90746 14.3446 1.83423 14.2613 1.77928 14.1661C1.72433 14.0709 1.68874 13.9658 1.67458 13.8568C1.66041 13.7479 1.66794 13.6372 1.69674 13.5311C1.72553 13.425 1.77502 13.3257 1.84236 13.2389C1.90969 13.152 1.99354 13.0793 2.08908 13.025L2.99241 12.5033C3.15237 12.411 3.27714 12.2682 3.34713 12.0973C3.41712 11.9264 3.42836 11.7371 3.37908 11.5592C3.09688 10.5366 3.09688 9.45672 3.37908 8.43417C3.42747 8.25657 3.41569 8.06795 3.34559 7.89774C3.27549 7.72754 3.15101 7.58534 2.99158 7.49333L2.08825 6.97167C1.89674 6.86116 1.75697 6.6791 1.6997 6.46555C1.64242 6.25199 1.67232 6.02442 1.78283 5.83292C1.89334 5.64141 2.07539 5.50164 2.28895 5.44437C2.50251 5.38709 2.73007 5.41699 2.92158 5.5275L3.82658 6.05083C3.98623 6.14376 4.17223 6.18101 4.35535 6.15672C4.53848 6.13244 4.70834 6.048 4.83825 5.91667C5.57999 5.15945 6.51444 4.61918 7.54075 4.35417C7.72044 4.30797 7.87958 4.20313 7.99294 4.05625C8.10631 3.90938 8.16741 3.72887 8.16658 3.54333V2.5C8.16658 2.27899 8.25438 2.06702 8.41066 1.91074C8.56694 1.75446 8.7789 1.66667 8.99991 1.66667C9.22093 1.66667 9.43289 1.75446 9.58917 1.91074C9.74545 2.06702 9.83325 2.27899 9.83325 2.5V3.54333C9.83316 3.7283 9.8946 3.90804 10.0079 4.05423C10.1212 4.20043 10.2799 4.30478 10.4591 4.35083C11.4858 4.61679 12.4202 5.15824 13.1616 5.91667C13.2911 6.04872 13.461 6.13391 13.6443 6.15881C13.8276 6.1837 14.014 6.14689 14.1741 6.05417L15.0774 5.53167C15.1722 5.47609 15.2771 5.43981 15.386 5.42492C15.4949 5.41003 15.6056 5.41683 15.7119 5.44492C15.8181 5.47301 15.9178 5.52184 16.0051 5.58859C16.0924 5.65535 16.1656 5.73872 16.2206 5.83389C16.2755 5.92907 16.3111 6.03417 16.3253 6.14316C16.3394 6.25214 16.3319 6.36285 16.3031 6.46891C16.2743 6.57497 16.2248 6.67429 16.1575 6.76114C16.0901 6.848 16.0063 6.92068 15.9107 6.975L15.0074 7.49667C14.8483 7.58892 14.7242 7.73123 14.6544 7.90141C14.5846 8.07159 14.573 8.26008 14.6216 8.4375V8.43667Z" fill="#888C9F"/>
</svg>
