<svg width="21" height="20" viewBox="0 0 21 20" fill="none" xmlns="http://www.w3.org/2000/svg">
<g clip-path="url(#clip0_54747_2521)">
<path d="M12.1101 3.33333C12.7879 3.334 13.4379 3.60357 13.9172 4.08289C14.3965 4.56222 14.6661 5.21213 14.6667 5.89C14.6667 6.11101 14.7545 6.32298 14.9108 6.47926C15.0671 6.63554 15.2791 6.72333 15.5001 6.72333C15.7211 6.72333 15.9331 6.63554 16.0893 6.47926C16.2456 6.32298 16.3334 6.11101 16.3334 5.89V5.83333C16.3334 5.8175 16.3334 5.80333 16.3334 5.7875C16.3056 4.68561 15.8485 3.63815 15.0596 2.86838C14.2707 2.09861 13.2123 1.6674 12.1101 1.66667H11.3334V0.833333C11.3334 0.61232 11.2456 0.400358 11.0893 0.244078C10.9331 0.0877974 10.7211 0 10.5001 0C10.2791 0 10.0671 0.0877974 9.91083 0.244078C9.75455 0.400358 9.66675 0.61232 9.66675 0.833333V1.66667H8.89008C7.88785 1.66774 6.91866 2.02519 6.15574 2.67515C5.39283 3.3251 4.88592 4.22519 4.72563 5.21452C4.56533 6.20385 4.76209 7.21795 5.28074 8.07555C5.79939 8.93315 6.60613 9.57835 7.55675 9.89583L9.66675 10.6V16.6667H8.89008C8.21221 16.666 7.5623 16.3964 7.08298 15.9171C6.60365 15.4378 6.33408 14.7879 6.33341 14.11C6.33341 13.889 6.24562 13.677 6.08934 13.5207C5.93306 13.3645 5.7211 13.2767 5.50008 13.2767C5.27907 13.2767 5.06711 13.3645 4.91083 13.5207C4.75455 13.677 4.66675 13.889 4.66675 14.11V14.1667C4.66675 14.1825 4.66675 14.1967 4.66675 14.2125C4.69456 15.3144 5.15163 16.3618 5.94055 17.1316C6.72947 17.9014 7.78784 18.3326 8.89008 18.3333H9.66675V19.1667C9.66675 19.3877 9.75455 19.5996 9.91083 19.7559C10.0671 19.9122 10.2791 20 10.5001 20C10.7211 20 10.9331 19.9122 11.0893 19.7559C11.2456 19.5996 11.3334 19.3877 11.3334 19.1667V18.3333H12.1101C13.1123 18.3323 14.0815 17.9748 14.8444 17.3249C15.6073 16.6749 16.1142 15.7748 16.2745 14.7855C16.4348 13.7961 16.2381 12.7821 15.7194 11.9245C15.2008 11.0669 14.394 10.4216 13.4434 10.1042L11.3334 9.4V3.33333H12.1101ZM12.9184 11.6842C13.4946 11.8759 13.9837 12.2665 14.2982 12.786C14.6127 13.3055 14.7319 13.92 14.6347 14.5194C14.5374 15.1189 14.23 15.6641 13.7674 16.0575C13.3049 16.451 12.7173 16.6669 12.1101 16.6667H11.3334V11.1558L12.9184 11.6842ZM9.66675 8.84417L8.08342 8.31583C7.50736 8.12411 7.01834 7.73364 6.70386 7.21432C6.38938 6.695 6.26997 6.08071 6.367 5.4814C6.46403 4.88208 6.77116 4.33685 7.23344 3.94329C7.69572 3.54972 8.28296 3.3335 8.89008 3.33333H9.66675V8.84417Z" fill="#236BFE"/>
</g>
<defs>
<clipPath id="clip0_54747_2521">
<rect width="20" height="20" fill="white" transform="translate(0.5)"/>
</clipPath>
</defs>
</svg>
